<svg width="900" height="320" viewBox="0 0 900 320" xmlns="http://www.w3.org/2000/svg">
<defs>

    <linearGradient id="wordmarkGrad" x1="0%" y1="0%" x2="100%" y2="0%">
      <stop offset="0%" stop-color="#123a5c"/>
      <stop offset="55%" stop-color="#1c5f9e"/>
      <stop offset="100%" stop-color="#3a86c8"/>
    </linearGradient>
    <linearGradient id="barGrad" x1="0%" y1="0%" x2="100%" y2="0%">
      <stop offset="0%" stop-color="#123a5c"/>
      <stop offset="50%" stop-color="#3a86c8"/>
      <stop offset="100%" stop-color="#bfe0fb"/>
    </linearGradient>
    <radialGradient id="iconGlow" cx="150" cy="168" r="140" gradientUnits="userSpaceOnUse">
      <stop offset="0%" stop-color="#bcdcf5" stop-opacity="0.55"/>
      <stop offset="60%" stop-color="#e4eef8" stop-opacity="0.25"/>
      <stop offset="100%" stop-color="#f5f7fb" stop-opacity="0"/>
    </radialGradient>


    <radialGradient id="b_coreGrad" cx="50%" cy="50%" r="50%">
      <stop offset="0%" stop-color="#ffffff"/>
      <stop offset="40%" stop-color="#bfe0fb"/>
      <stop offset="100%" stop-color="#3f8cc9" stop-opacity="0"/>
    </radialGradient>
    <filter id="b_softBlur" x="-60%" y="-60%" width="220%" height="220%">
      <feGaussianBlur stdDeviation="3.2"/>
    </filter>
    <filter id="b_wideBlur" x="-100%" y="-100%" width="300%" height="300%">
      <feGaussianBlur stdDeviation="9"/>
    </filter>

</defs>
<rect x="1" y="1" width="898" height="318" rx="20" ry="20" fill="#f5f7fb" stroke="#d7e0ea" stroke-width="1.5"/>
<circle cx="150" cy="168" r="140" fill="url(#iconGlow)"/>
<text x="450.0" y="38" text-anchor="middle" font-family="Menlo, Consolas, monospace" font-size="13" letter-spacing="3" fill="#5b7692">◇  P E R S I S T E N T  ◇</text>
<g opacity="0.85"><line x1="42" y1="60" x2="54" y2="60" stroke="#3a86c8" stroke-width="1"/><line x1="48" y1="54" x2="48" y2="66" stroke="#3a86c8" stroke-width="1"/><line x1="45.0" y1="57.0" x2="51.0" y2="63.0" stroke="#3a86c8" stroke-width="0.6"/><line x1="45.0" y1="63.0" x2="51.0" y2="57.0" stroke="#3a86c8" stroke-width="0.6"/></g>
<g opacity="0.85"><line x1="250.5" y1="55" x2="259.5" y2="55" stroke="#3a86c8" stroke-width="1"/><line x1="255" y1="50.5" x2="255" y2="59.5" stroke="#3a86c8" stroke-width="1"/><line x1="252.75" y1="52.75" x2="257.25" y2="57.25" stroke="#3a86c8" stroke-width="0.6"/><line x1="252.75" y1="57.25" x2="257.25" y2="52.75" stroke="#3a86c8" stroke-width="0.6"/></g>
<g opacity="0.85"><line x1="47" y1="275" x2="57" y2="275" stroke="#3a86c8" stroke-width="1"/><line x1="52" y1="270" x2="52" y2="280" stroke="#3a86c8" stroke-width="1"/><line x1="49.5" y1="272.5" x2="54.5" y2="277.5" stroke="#3a86c8" stroke-width="0.6"/><line x1="49.5" y1="277.5" x2="54.5" y2="272.5" stroke="#3a86c8" stroke-width="0.6"/></g>
<g opacity="0.85"><line x1="246" y1="250" x2="254" y2="250" stroke="#3a86c8" stroke-width="1"/><line x1="250" y1="246" x2="250" y2="254" stroke="#3a86c8" stroke-width="1"/><line x1="248.0" y1="248.0" x2="252.0" y2="252.0" stroke="#3a86c8" stroke-width="0.6"/><line x1="248.0" y1="252.0" x2="252.0" y2="248.0" stroke="#3a86c8" stroke-width="0.6"/></g>
<g opacity="0.85"><line x1="696" y1="45" x2="704" y2="45" stroke="#3a86c8" stroke-width="1"/><line x1="700" y1="41" x2="700" y2="49" stroke="#3a86c8" stroke-width="1"/><line x1="698.0" y1="43.0" x2="702.0" y2="47.0" stroke="#3a86c8" stroke-width="0.6"/><line x1="698.0" y1="47.0" x2="702.0" y2="43.0" stroke="#3a86c8" stroke-width="0.6"/></g>
<g opacity="0.85"><line x1="815.5" y1="250" x2="824.5" y2="250" stroke="#3a86c8" stroke-width="1"/><line x1="820" y1="245.5" x2="820" y2="254.5" stroke="#3a86c8" stroke-width="1"/><line x1="817.75" y1="247.75" x2="822.25" y2="252.25" stroke="#3a86c8" stroke-width="0.6"/><line x1="817.75" y1="252.25" x2="822.25" y2="247.75" stroke="#3a86c8" stroke-width="0.6"/></g>
<circle cx="90" cy="210" r="1.4" fill="#6ea6d1" opacity="0.7"/>
<circle cx="215" cy="90" r="1.4" fill="#6ea6d1" opacity="0.7"/>
<circle cx="95" cy="100" r="1.4" fill="#6ea6d1" opacity="0.7"/>
<circle cx="210" cy="220" r="1.4" fill="#6ea6d1" opacity="0.7"/>
<circle cx="640" cy="200" r="1.4" fill="#6ea6d1" opacity="0.7"/>
<circle cx="760" cy="90" r="1.4" fill="#6ea6d1" opacity="0.7"/>
<circle cx="600" cy="260" r="1.4" fill="#6ea6d1" opacity="0.7"/>
<g filter="url(#b_wideBlur)" opacity="0.55">
<line x1="150" y1="168" x2="150.0" y2="72.0" stroke="#a9d4f0" stroke-width="3.0"/>
<line x1="150" y1="168" x2="199.5" y2="118.5" stroke="#a9d4f0" stroke-width="3.0"/>
<line x1="150" y1="168" x2="246.0" y2="168.0" stroke="#a9d4f0" stroke-width="3.0"/>
<line x1="150" y1="168" x2="199.5" y2="217.5" stroke="#a9d4f0" stroke-width="3.0"/>
<line x1="150" y1="168" x2="150.0" y2="264.0" stroke="#a9d4f0" stroke-width="3.0"/>
<line x1="150" y1="168" x2="100.5" y2="217.5" stroke="#a9d4f0" stroke-width="3.0"/>
<line x1="150" y1="168" x2="54.0" y2="168.0" stroke="#a9d4f0" stroke-width="3.0"/>
<line x1="150" y1="168" x2="100.5" y2="118.5" stroke="#a9d4f0" stroke-width="3.0"/>
</g>
<line x1="150" y1="168" x2="150.0" y2="72.0" stroke="#1c4f80" stroke-width="1.4" stroke-linecap="round"/>
<circle cx="150.0" cy="127.7" r="2.0" fill="#1c4f80"/>
<circle cx="150.0" cy="98.9" r="2.4" fill="#1c4f80"/>
<circle cx="150.0" cy="72.0" r="3.0" fill="#1c4f80"/>
<line x1="150" y1="168" x2="199.5" y2="118.5" stroke="#1c4f80" stroke-width="1.4" stroke-linecap="round"/>
<circle cx="170.8" cy="147.2" r="2.0" fill="#1c4f80"/>
<circle cx="185.6" cy="132.4" r="2.4" fill="#1c4f80"/>
<circle cx="199.5" cy="118.5" r="3.0" fill="#1c4f80"/>
<line x1="150" y1="168" x2="246.0" y2="168.0" stroke="#1c4f80" stroke-width="1.4" stroke-linecap="round"/>
<circle cx="190.3" cy="168.0" r="2.0" fill="#1c4f80"/>
<circle cx="219.1" cy="168.0" r="2.4" fill="#1c4f80"/>
<circle cx="246.0" cy="168.0" r="3.0" fill="#1c4f80"/>
<line x1="150" y1="168" x2="199.5" y2="217.5" stroke="#1c4f80" stroke-width="1.4" stroke-linecap="round"/>
<circle cx="170.8" cy="188.8" r="2.0" fill="#1c4f80"/>
<circle cx="185.6" cy="203.6" r="2.4" fill="#1c4f80"/>
<circle cx="199.5" cy="217.5" r="3.0" fill="#1c4f80"/>
<line x1="150" y1="168" x2="150.0" y2="264.0" stroke="#1c4f80" stroke-width="1.4" stroke-linecap="round"/>
<circle cx="150.0" cy="208.3" r="2.0" fill="#1c4f80"/>
<circle cx="150.0" cy="237.1" r="2.4" fill="#1c4f80"/>
<circle cx="150.0" cy="264.0" r="3.0" fill="#1c4f80"/>
<line x1="150" y1="168" x2="100.5" y2="217.5" stroke="#1c4f80" stroke-width="1.4" stroke-linecap="round"/>
<circle cx="129.2" cy="188.8" r="2.0" fill="#1c4f80"/>
<circle cx="114.4" cy="203.6" r="2.4" fill="#1c4f80"/>
<circle cx="100.5" cy="217.5" r="3.0" fill="#1c4f80"/>
<line x1="150" y1="168" x2="54.0" y2="168.0" stroke="#1c4f80" stroke-width="1.4" stroke-linecap="round"/>
<circle cx="109.7" cy="168.0" r="2.0" fill="#1c4f80"/>
<circle cx="80.9" cy="168.0" r="2.4" fill="#1c4f80"/>
<circle cx="54.0" cy="168.0" r="3.0" fill="#1c4f80"/>
<line x1="150" y1="168" x2="100.5" y2="118.5" stroke="#1c4f80" stroke-width="1.4" stroke-linecap="round"/>
<circle cx="129.2" cy="147.2" r="2.0" fill="#1c4f80"/>
<circle cx="114.4" cy="132.4" r="2.4" fill="#1c4f80"/>
<circle cx="100.5" cy="118.5" r="3.0" fill="#1c4f80"/>
<polyline points="150.0,168.0 142.0,157.0 137.0,159.0" fill="none" stroke="#1c4f80" stroke-width="0.90" stroke-opacity="0.75" stroke-linecap="round"/>
<polyline points="150.0,168.0 159.0,158.0 165.0,153.0" fill="none" stroke="#1c4f80" stroke-width="0.90" stroke-opacity="0.75" stroke-linecap="round"/>
<polyline points="150.0,168.0 139.0,176.0 133.0,181.0" fill="none" stroke="#1c4f80" stroke-width="0.90" stroke-opacity="0.75" stroke-linecap="round"/>
<polyline points="150.0,168.0 160.0,177.0 164.0,184.0" fill="none" stroke="#1c4f80" stroke-width="0.90" stroke-opacity="0.75" stroke-linecap="round"/>
<polyline points="150.0,168.0 146.0,182.0 148.0,189.0" fill="none" stroke="#1c4f80" stroke-width="0.90" stroke-opacity="0.75" stroke-linecap="round"/>
<polyline points="150.0,168.0 153.0,153.0 157.0,147.0" fill="none" stroke="#1c4f80" stroke-width="0.90" stroke-opacity="0.75" stroke-linecap="round"/>
<circle cx="150" cy="168" r="26.0" fill="url(#b_coreGrad)" filter="url(#b_softBlur)"/>
<circle cx="150" cy="168" r="9.0" fill="none" stroke="#1c4f80" stroke-width="1.4"/>
<circle cx="150" cy="168" r="7.0" fill="#1c4f80"/>
<text x="300" y="185" font-family="Menlo, Consolas, monospace" font-weight="bold" font-size="72" letter-spacing="6" fill="url(#wordmarkGrad)">ENGRAM</text>
<text x="303" y="220" font-family="Menlo, Consolas, monospace" font-size="16" letter-spacing="3" fill="#5b7692">memory that stays</text>
<text x="40" y="296" font-family="Menlo, Consolas, monospace" font-size="12" fill="#7086a0">&#9656; one store, any agent — the trace your journey leaves behind</text>
<text x="860" y="296" text-anchor="end" font-family="Menlo, Consolas, monospace" font-size="12" fill="#1c6fa8">&#9656; /plugin install engram@engram-marketplace</text>
<rect x="20" y="306" width="860" height="6" rx="3" fill="url(#barGrad)"/>
</svg>