<svg width="240" height="240" viewBox="0 0 240 240" xmlns="http://www.w3.org/2000/svg">
<defs>

    <radialGradient id="i_iconGlow" cx="120.0" cy="120.0" r="118" gradientUnits="userSpaceOnUse">
      <stop offset="0%" stop-color="#2f6fa8" stop-opacity="0.6"/>
      <stop offset="60%" stop-color="#16283f" stop-opacity="0.3"/>
      <stop offset="100%" stop-color="#0b0e14" stop-opacity="0"/>
    </radialGradient>


    <radialGradient id="i_coreGrad" cx="50%" cy="50%" r="50%">
      <stop offset="0%" stop-color="#ffffff"/>
      <stop offset="40%" stop-color="#cdeaff"/>
      <stop offset="100%" stop-color="#3f8cc9" stop-opacity="0"/>
    </radialGradient>
    <filter id="i_softBlur" x="-60%" y="-60%" width="220%" height="220%">
      <feGaussianBlur stdDeviation="3.2"/>
    </filter>
    <filter id="i_wideBlur" x="-100%" y="-100%" width="300%" height="300%">
      <feGaussianBlur stdDeviation="9"/>
    </filter>

</defs>
<circle cx="120.0" cy="120.0" r="118.0" fill="#0b0e14" stroke="#1c2a3d" stroke-width="2"/>
<circle cx="120.0" cy="120.0" r="118" fill="url(#i_iconGlow)"/>
<g filter="url(#i_wideBlur)" opacity="0.55">
<line x1="120.0" y1="120.0" x2="120.0" y2="41.3" stroke="#8fd0f7" stroke-width="2.5"/>
<line x1="120.0" y1="120.0" x2="160.6" y2="79.4" stroke="#8fd0f7" stroke-width="2.5"/>
<line x1="120.0" y1="120.0" x2="198.7" y2="120.0" stroke="#8fd0f7" stroke-width="2.5"/>
<line x1="120.0" y1="120.0" x2="160.6" y2="160.6" stroke="#8fd0f7" stroke-width="2.5"/>
<line x1="120.0" y1="120.0" x2="120.0" y2="198.7" stroke="#8fd0f7" stroke-width="2.5"/>
<line x1="120.0" y1="120.0" x2="79.4" y2="160.6" stroke="#8fd0f7" stroke-width="2.5"/>
<line x1="120.0" y1="120.0" x2="41.3" y2="120.0" stroke="#8fd0f7" stroke-width="2.5"/>
<line x1="120.0" y1="120.0" x2="79.4" y2="79.4" stroke="#8fd0f7" stroke-width="2.5"/>
</g>
<line x1="120.0" y1="120.0" x2="120.0" y2="41.3" stroke="#f2f9ff" stroke-width="1.1" stroke-linecap="round"/>
<circle cx="120.0" cy="86.9" r="1.6" fill="#f2f9ff"/>
<circle cx="120.0" cy="63.3" r="2.0" fill="#f2f9ff"/>
<circle cx="120.0" cy="41.3" r="2.5" fill="#f2f9ff"/>
<line x1="120.0" y1="120.0" x2="160.6" y2="79.4" stroke="#f2f9ff" stroke-width="1.1" stroke-linecap="round"/>
<circle cx="137.0" cy="103.0" r="1.6" fill="#f2f9ff"/>
<circle cx="149.2" cy="90.8" r="2.0" fill="#f2f9ff"/>
<circle cx="160.6" cy="79.4" r="2.5" fill="#f2f9ff"/>
<line x1="120.0" y1="120.0" x2="198.7" y2="120.0" stroke="#f2f9ff" stroke-width="1.1" stroke-linecap="round"/>
<circle cx="153.1" cy="120.0" r="1.6" fill="#f2f9ff"/>
<circle cx="176.7" cy="120.0" r="2.0" fill="#f2f9ff"/>
<circle cx="198.7" cy="120.0" r="2.5" fill="#f2f9ff"/>
<line x1="120.0" y1="120.0" x2="160.6" y2="160.6" stroke="#f2f9ff" stroke-width="1.1" stroke-linecap="round"/>
<circle cx="137.0" cy="137.0" r="1.6" fill="#f2f9ff"/>
<circle cx="149.2" cy="149.2" r="2.0" fill="#f2f9ff"/>
<circle cx="160.6" cy="160.6" r="2.5" fill="#f2f9ff"/>
<line x1="120.0" y1="120.0" x2="120.0" y2="198.7" stroke="#f2f9ff" stroke-width="1.1" stroke-linecap="round"/>
<circle cx="120.0" cy="153.1" r="1.6" fill="#f2f9ff"/>
<circle cx="120.0" cy="176.7" r="2.0" fill="#f2f9ff"/>
<circle cx="120.0" cy="198.7" r="2.5" fill="#f2f9ff"/>
<line x1="120.0" y1="120.0" x2="79.4" y2="160.6" stroke="#f2f9ff" stroke-width="1.1" stroke-linecap="round"/>
<circle cx="103.0" cy="137.0" r="1.6" fill="#f2f9ff"/>
<circle cx="90.8" cy="149.2" r="2.0" fill="#f2f9ff"/>
<circle cx="79.4" cy="160.6" r="2.5" fill="#f2f9ff"/>
<line x1="120.0" y1="120.0" x2="41.3" y2="120.0" stroke="#f2f9ff" stroke-width="1.1" stroke-linecap="round"/>
<circle cx="86.9" cy="120.0" r="1.6" fill="#f2f9ff"/>
<circle cx="63.3" cy="120.0" r="2.0" fill="#f2f9ff"/>
<circle cx="41.3" cy="120.0" r="2.5" fill="#f2f9ff"/>
<line x1="120.0" y1="120.0" x2="79.4" y2="79.4" stroke="#f2f9ff" stroke-width="1.1" stroke-linecap="round"/>
<circle cx="103.0" cy="103.0" r="1.6" fill="#f2f9ff"/>
<circle cx="90.8" cy="90.8" r="2.0" fill="#f2f9ff"/>
<circle cx="79.4" cy="79.4" r="2.5" fill="#f2f9ff"/>
<polyline points="120.0,120.0 113.4,111.0 109.3,112.6" fill="none" stroke="#f2f9ff" stroke-width="0.74" stroke-opacity="0.75" stroke-linecap="round"/>
<polyline points="120.0,120.0 127.4,111.8 132.3,107.7" fill="none" stroke="#f2f9ff" stroke-width="0.74" stroke-opacity="0.75" stroke-linecap="round"/>
<polyline points="120.0,120.0 111.0,126.6 106.1,130.7" fill="none" stroke="#f2f9ff" stroke-width="0.74" stroke-opacity="0.75" stroke-linecap="round"/>
<polyline points="120.0,120.0 128.2,127.4 131.5,133.1" fill="none" stroke="#f2f9ff" stroke-width="0.74" stroke-opacity="0.75" stroke-linecap="round"/>
<polyline points="120.0,120.0 116.7,131.5 118.4,137.2" fill="none" stroke="#f2f9ff" stroke-width="0.74" stroke-opacity="0.75" stroke-linecap="round"/>
<polyline points="120.0,120.0 122.5,107.7 125.7,102.8" fill="none" stroke="#f2f9ff" stroke-width="0.74" stroke-opacity="0.75" stroke-linecap="round"/>
<circle cx="120.0" cy="120.0" r="21.3" fill="url(#i_coreGrad)" filter="url(#i_softBlur)"/>
<circle cx="120.0" cy="120.0" r="5.7" fill="#f2f9ff"/>
</svg>