<svg width="560" height="160" viewBox="0 0 560 160" xmlns="http://www.w3.org/2000/svg">
<defs>

    <linearGradient id="l_wordmarkGrad" x1="0%" y1="0%" x2="100%" y2="0%">
      <stop offset="0%" stop-color="#eaf4ff"/>
      <stop offset="55%" stop-color="#bfe0fb"/>
      <stop offset="100%" stop-color="#79b8e8"/>
    </linearGradient>
    <radialGradient id="l_iconGlow" cx="90" cy="80" r="90" gradientUnits="userSpaceOnUse">
      <stop offset="0%" stop-color="#2f6fa8" stop-opacity="0.6"/>
      <stop offset="60%" stop-color="#16283f" stop-opacity="0.3"/>
      <stop offset="100%" stop-color="#0b0e14" stop-opacity="0"/>
    </radialGradient>


    <radialGradient id="l_coreGrad" cx="50%" cy="50%" r="50%">
      <stop offset="0%" stop-color="#ffffff"/>
      <stop offset="40%" stop-color="#cdeaff"/>
      <stop offset="100%" stop-color="#3f8cc9" stop-opacity="0"/>
    </radialGradient>
    <filter id="l_softBlur" x="-60%" y="-60%" width="220%" height="220%">
      <feGaussianBlur stdDeviation="3.2"/>
    </filter>
    <filter id="l_wideBlur" x="-100%" y="-100%" width="300%" height="300%">
      <feGaussianBlur stdDeviation="9"/>
    </filter>

</defs>
<rect x="1" y="1" width="558" height="158" rx="18" ry="18" fill="#0b0e14" stroke="#1c2a3d" stroke-width="1.5"/>
<circle cx="90" cy="80" r="90" fill="url(#l_iconGlow)"/>
<circle cx="90" cy="80" r="62" fill="#0b0e14" stroke="#1c2a3d" stroke-width="1.5"/>
<g filter="url(#l_wideBlur)" opacity="0.55">
<line x1="90" y1="80" x2="90.0" y2="26.2" stroke="#8fd0f7" stroke-width="1.7"/>
<line x1="90" y1="80" x2="117.7" y2="52.3" stroke="#8fd0f7" stroke-width="1.7"/>
<line x1="90" y1="80" x2="143.8" y2="80.0" stroke="#8fd0f7" stroke-width="1.7"/>
<line x1="90" y1="80" x2="117.7" y2="107.7" stroke="#8fd0f7" stroke-width="1.7"/>
<line x1="90" y1="80" x2="90.0" y2="133.8" stroke="#8fd0f7" stroke-width="1.7"/>
<line x1="90" y1="80" x2="62.3" y2="107.7" stroke="#8fd0f7" stroke-width="1.7"/>
<line x1="90" y1="80" x2="36.2" y2="80.0" stroke="#8fd0f7" stroke-width="1.7"/>
<line x1="90" y1="80" x2="62.3" y2="52.3" stroke="#8fd0f7" stroke-width="1.7"/>
</g>
<line x1="90" y1="80" x2="90.0" y2="26.2" stroke="#f2f9ff" stroke-width="0.8" stroke-linecap="round"/>
<circle cx="90.0" cy="57.4" r="1.1" fill="#f2f9ff"/>
<circle cx="90.0" cy="41.3" r="1.3" fill="#f2f9ff"/>
<circle cx="90.0" cy="26.2" r="1.7" fill="#f2f9ff"/>
<line x1="90" y1="80" x2="117.7" y2="52.3" stroke="#f2f9ff" stroke-width="0.8" stroke-linecap="round"/>
<circle cx="101.6" cy="68.4" r="1.1" fill="#f2f9ff"/>
<circle cx="110.0" cy="60.0" r="1.3" fill="#f2f9ff"/>
<circle cx="117.7" cy="52.3" r="1.7" fill="#f2f9ff"/>
<line x1="90" y1="80" x2="143.8" y2="80.0" stroke="#f2f9ff" stroke-width="0.8" stroke-linecap="round"/>
<circle cx="112.6" cy="80.0" r="1.1" fill="#f2f9ff"/>
<circle cx="128.7" cy="80.0" r="1.3" fill="#f2f9ff"/>
<circle cx="143.8" cy="80.0" r="1.7" fill="#f2f9ff"/>
<line x1="90" y1="80" x2="117.7" y2="107.7" stroke="#f2f9ff" stroke-width="0.8" stroke-linecap="round"/>
<circle cx="101.6" cy="91.6" r="1.1" fill="#f2f9ff"/>
<circle cx="110.0" cy="100.0" r="1.3" fill="#f2f9ff"/>
<circle cx="117.7" cy="107.7" r="1.7" fill="#f2f9ff"/>
<line x1="90" y1="80" x2="90.0" y2="133.8" stroke="#f2f9ff" stroke-width="0.8" stroke-linecap="round"/>
<circle cx="90.0" cy="102.6" r="1.1" fill="#f2f9ff"/>
<circle cx="90.0" cy="118.7" r="1.3" fill="#f2f9ff"/>
<circle cx="90.0" cy="133.8" r="1.7" fill="#f2f9ff"/>
<line x1="90" y1="80" x2="62.3" y2="107.7" stroke="#f2f9ff" stroke-width="0.8" stroke-linecap="round"/>
<circle cx="78.4" cy="91.6" r="1.1" fill="#f2f9ff"/>
<circle cx="70.0" cy="100.0" r="1.3" fill="#f2f9ff"/>
<circle cx="62.3" cy="107.7" r="1.7" fill="#f2f9ff"/>
<line x1="90" y1="80" x2="36.2" y2="80.0" stroke="#f2f9ff" stroke-width="0.8" stroke-linecap="round"/>
<circle cx="67.4" cy="80.0" r="1.1" fill="#f2f9ff"/>
<circle cx="51.3" cy="80.0" r="1.3" fill="#f2f9ff"/>
<circle cx="36.2" cy="80.0" r="1.7" fill="#f2f9ff"/>
<line x1="90" y1="80" x2="62.3" y2="52.3" stroke="#f2f9ff" stroke-width="0.8" stroke-linecap="round"/>
<circle cx="78.4" cy="68.4" r="1.1" fill="#f2f9ff"/>
<circle cx="70.0" cy="60.0" r="1.3" fill="#f2f9ff"/>
<circle cx="62.3" cy="52.3" r="1.7" fill="#f2f9ff"/>
<polyline points="90.0,80.0 85.5,73.8 82.7,75.0" fill="none" stroke="#f2f9ff" stroke-width="0.50" stroke-opacity="0.75" stroke-linecap="round"/>
<polyline points="90.0,80.0 95.0,74.4 98.4,71.6" fill="none" stroke="#f2f9ff" stroke-width="0.50" stroke-opacity="0.75" stroke-linecap="round"/>
<polyline points="90.0,80.0 83.8,84.5 80.5,87.3" fill="none" stroke="#f2f9ff" stroke-width="0.50" stroke-opacity="0.75" stroke-linecap="round"/>
<polyline points="90.0,80.0 95.6,85.0 97.8,89.0" fill="none" stroke="#f2f9ff" stroke-width="0.50" stroke-opacity="0.75" stroke-linecap="round"/>
<polyline points="90.0,80.0 87.8,87.8 88.9,91.8" fill="none" stroke="#f2f9ff" stroke-width="0.50" stroke-opacity="0.75" stroke-linecap="round"/>
<polyline points="90.0,80.0 91.7,71.6 93.9,68.2" fill="none" stroke="#f2f9ff" stroke-width="0.50" stroke-opacity="0.75" stroke-linecap="round"/>
<circle cx="90" cy="80" r="14.6" fill="url(#l_coreGrad)" filter="url(#l_softBlur)"/>
<circle cx="90" cy="80" r="3.9" fill="#f2f9ff"/>
<text x="180" y="92" font-family="Menlo, Consolas, monospace" font-weight="bold" font-size="52" letter-spacing="4" fill="url(#l_wordmarkGrad)">ENGRAM</text>
<text x="183" y="118" font-family="Menlo, Consolas, monospace" font-size="13" letter-spacing="3" fill="#7f93ab">memory that stays</text>
</svg>